<svg width="24" height="24" viewBox="0 0 24 24" fill="none" xmlns="http://www.w3.org/2000/svg">
<g clip-path="url(#clip0_1_60)">
<path fill-rule="evenodd" clip-rule="evenodd" d="M17.997 13.5173L14.247 13.503C13.8337 13.5015 13.5 13.1655 13.5 12.753V6.75C13.5 6.336 13.836 6 14.25 6H18C18.414 6 18.75 6.336 18.75 6.75V12.7673C18.75 13.1828 18.4125 13.5188 17.997 13.5173ZM9.75 18H6C5.586 18 5.25 17.664 5.25 17.25V6.75C5.25 6.336 5.586 6 6 6H9.75C10.164 6 10.5 6.336 10.5 6.75V17.25C10.5 17.664 10.164 18 9.75 18ZM12 0C5.37225 0 0 5.37225 0 12C0 18.627 5.37225 24 12 24C18.627 24 24 18.627 24 12C24 5.37225 18.627 0 12 0" fill="#3282CD"/>
</g>
<defs>
<clipPath id="clip0_1_60">
<rect width="24" height="24" fill="white"/>
</clipPath>
</defs>
</svg>
