<svg width="24" height="24" viewBox="0 0 24 24" fill="none" xmlns="http://www.w3.org/2000/svg">
<path d="M11.9886 6.31579C8.84337 6.31579 6.31579 8.86042 6.31579 12C6.31579 15.1396 8.84337 17.6842 11.9886 17.6842C15.1339 17.6842 17.6842 15.1396 17.6842 12C17.6842 8.86042 15.1345 6.31579 11.9886 6.31579ZM12 15.1579C10.2562 15.1579 8.8421 13.7438 8.8421 12C8.8421 10.2562 10.2562 8.8421 12 8.8421C13.7438 8.8421 15.1579 10.2562 15.1579 12C15.1579 13.7438 13.7438 15.1579 12 15.1579Z" fill="#EF5350"/>
<path d="M12 0C8.17453 0 1.34653 0 1.02632 0C0.459789 0 0 0.459789 0 1.02632C0 1.59284 0 10.0067 0 12C0 18.6272 5.37284 24 12 24C18.6272 24 24 18.6272 24 12C24 5.37284 18.6272 0 12 0ZM12 20.2105C7.46526 20.2105 3.78947 16.5347 3.78947 12C3.78947 7.46526 7.46526 3.78947 12 3.78947C16.5347 3.78947 20.2105 7.46526 20.2105 12C20.2105 16.5347 16.5347 20.2105 12 20.2105Z" fill="#EF5350"/>
</svg>
