<svg width="24" height="24" viewBox="0 0 24 24" fill="none" xmlns="http://www.w3.org/2000/svg">
<g clip-path="url(#clip0_1577_112)">
<path d="M11.9999 23.9998C18.6273 23.9998 23.9998 18.6273 23.9998 11.9999C23.9998 5.37254 18.6273 0 11.9999 0C5.37254 0 0 5.37254 0 11.9999C0 18.6273 5.37254 23.9998 11.9999 23.9998Z" fill="#55ACEE"/>
<path d="M19.3498 8.62436C18.8356 8.85239 18.2824 9.00662 17.7023 9.07549C18.2946 8.72062 18.7492 8.15911 18.9637 7.48893C18.4095 7.81771 17.7954 8.05622 17.1423 8.18478C16.6191 7.62754 15.8736 7.2793 15.0481 7.2793C13.4643 7.2793 12.1798 8.56382 12.1798 10.1476C12.1798 10.3724 12.2053 10.5913 12.2545 10.8013C9.87065 10.6817 7.75701 9.53989 6.34221 7.80402C6.09536 8.22756 5.95376 8.72062 5.95376 9.24619C5.95376 10.2411 6.46051 11.1194 7.22973 11.6336C6.75977 11.6189 6.31719 11.4899 5.93065 11.2745C5.93044 11.2867 5.93044 11.2989 5.93044 11.3108C5.93044 12.7006 6.91956 13.8598 8.23146 14.1231C7.99103 14.189 7.73712 14.2239 7.47594 14.2239C7.29069 14.2239 7.11122 14.2061 6.93624 14.1727C7.30117 15.312 8.36024 16.1414 9.61567 16.1647C8.63383 16.9341 7.39722 17.3925 6.05301 17.3925C5.82199 17.3925 5.5931 17.379 5.36914 17.3523C6.63784 18.1664 8.1459 18.6411 9.76562 18.6411C15.0415 18.6411 17.9267 14.2705 17.9267 10.4798C17.9267 10.3555 17.9239 10.2317 17.9184 10.1089C18.4792 9.7046 18.9654 9.19956 19.3498 8.62436Z" fill="#F1F2F2"/>
</g>
<defs>
<clipPath id="clip0_1577_112">
<rect width="24" height="24" fill="white"/>
</clipPath>
</defs>
</svg>
