<svg width="24" height="24" viewBox="0 0 24 24" fill="none" xmlns="http://www.w3.org/2000/svg">
<path d="M12 24C5.3736 24 0 18.6264 0 12C0 5.3736 5.3736 0 12 0C18.6264 0 24 5.3736 24 12C24 18.6264 18.6264 24 12 24Z" fill="#39475D"/>
<path d="M16.1376 18.1944C15.66 18.7056 14.5512 19.0512 13.5576 19.068H13.4496C10.1136 19.068 9.3912 16.6152 9.3912 15.1848V11.208H8.0784C7.9272 11.208 7.8024 11.0856 7.8024 10.932V9.05519C7.8024 8.85599 7.9272 8.68079 8.1144 8.61359C9.8256 8.01119 10.3632 6.516 10.4424 5.3808C10.464 5.0784 10.6224 4.9296 10.8864 4.9296H12.8448C12.996 4.9296 13.1208 5.052 13.1208 5.2056V8.38559H15.4128C15.564 8.38559 15.6888 8.50799 15.6888 8.65919V10.9152C15.6888 11.0664 15.5664 11.1912 15.4128 11.1912H13.1088V14.868C13.1088 15.792 13.7184 16.0464 14.0928 16.0464C14.4528 16.0368 14.808 15.9288 14.9856 15.8568C15.1176 15.804 15.2328 15.768 15.3384 15.7944C15.4344 15.8184 15.4992 15.888 15.5424 16.0128L16.1496 17.7888C16.1976 17.9328 16.2384 18.0864 16.1376 18.1944Z" fill="white"/>
</svg>
