<svg width="24" height="24" viewBox="0 0 24 24" fill="none" xmlns="http://www.w3.org/2000/svg">
<path d="M12 24C18.6274 24 24 18.6274 24 12C24 5.37258 18.6274 0 12 0C5.37258 0 0 5.37258 0 12C0 18.6274 5.37258 24 12 24Z" fill="url(#paint0_linear_3_126)"/>
<path d="M17.8406 6.90469L15.6984 17.7094C15.6984 17.7094 15.3984 18.4594 14.5734 18.0984L9.62813 14.3063L7.82813 13.4391L4.8 12.4219C4.8 12.4219 4.33594 12.2578 4.28906 11.8969C4.24219 11.5359 4.81406 11.3438 4.81406 11.3438L16.8516 6.62344C16.8516 6.61875 17.8406 6.18281 17.8406 6.90469Z" fill="white"/>
<path d="M9.24375 17.5875C9.24375 17.5875 9.09844 17.5734 8.92031 17.0062C8.74219 16.4391 7.82812 13.4391 7.82812 13.4391L15.0985 8.82187C15.0985 8.82187 15.5203 8.56875 15.5016 8.82187C15.5016 8.82187 15.5766 8.86875 15.3516 9.075C15.1266 9.28594 9.64219 14.2172 9.64219 14.2172" fill="#D2E4F0"/>
<path d="M11.5219 15.7594L9.56719 17.5453C9.56719 17.5453 9.41251 17.6625 9.24844 17.5875L9.62344 14.2734" fill="#B5CFE4"/>
<defs>
<linearGradient id="paint0_linear_3_126" x1="12" y1="0" x2="12" y2="23.9124" gradientUnits="userSpaceOnUse">
<stop stop-color="#41BCE7"/>
<stop offset="1" stop-color="#22A6DC"/>
</linearGradient>
</defs>
</svg>
