<svg width="24" height="24" viewBox="0 0 24 24" fill="none" xmlns="http://www.w3.org/2000/svg">
<g clip-path="url(#clip0_101_5)">
<path d="M23.6297 12C23.6297 5.57812 18.4219 0.370312 12 0.370312C5.57812 0.370312 0.370312 5.57812 0.370312 12C0.370312 18.4219 5.57812 23.6297 12 23.6297C18.4219 23.6297 23.6297 18.4219 23.6297 12Z" fill="#25B7D3"/>
<path d="M15.15 17.2266C15.0844 17.1328 14.9625 17.0953 14.8547 17.1469C13.7016 17.6906 12.3937 18.2672 12.1359 18.3187C12.1312 18.3141 12.1172 18.3047 12.1078 18.2859C12.075 18.2391 12.0562 18.1781 12.0562 18.0984C12.0562 17.4469 12.5484 15.4641 13.5187 12.2062C14.3391 9.46875 14.4328 8.90156 14.4328 8.71406C14.4328 8.42344 14.3203 8.17969 14.1094 8.00625C13.9078 7.84219 13.6312 7.75781 13.2797 7.75781C12.6937 7.75781 12.0187 7.97812 11.2125 8.4375C10.4297 8.87812 9.55312 9.62812 8.61562 10.6641C8.54062 10.7438 8.53594 10.8656 8.59687 10.9547C8.65781 11.0437 8.775 11.0766 8.87812 11.0391C9.20625 10.9031 10.8656 10.2234 11.1094 10.0734C11.3062 9.95156 11.4797 9.88594 11.6203 9.88594C11.625 9.88594 11.6297 9.88594 11.6344 9.88594C11.6344 9.89531 11.6391 9.90938 11.6391 9.92813C11.6391 10.0688 11.6109 10.2422 11.55 10.4297C10.1391 15.0047 9.45 17.8125 9.45 19.0078C9.45 19.4297 9.56719 19.7672 9.79687 20.0156C10.0312 20.2688 10.35 20.3953 10.7391 20.3953C11.1562 20.3953 11.6625 20.2219 12.2906 19.8609C12.8953 19.5141 13.8234 18.75 15.1219 17.5312C15.2016 17.4469 15.2156 17.3203 15.15 17.2266ZM15.1031 3.96562C14.8734 3.73125 14.5781 3.60938 14.2266 3.60938C13.7906 3.60938 13.4062 3.78281 13.0922 4.125C12.7828 4.4625 12.6281 4.87031 12.6281 5.34844C12.6281 5.72344 12.7453 6.0375 12.9703 6.27656C13.2 6.52031 13.4906 6.64219 13.8375 6.64219C14.2594 6.64219 14.6344 6.45938 14.9625 6.09844C15.2859 5.74219 15.45 5.32969 15.45 4.86094C15.45 4.5 15.3328 4.2 15.1031 3.96562Z" fill="white"/>
</g>
<defs>
<clipPath id="clip0_101_5">
<rect width="24" height="24" fill="white"/>
</clipPath>
</defs>
</svg>
