<svg width="24" height="24" viewBox="0 0 24 24" fill="none" xmlns="http://www.w3.org/2000/svg">
<path d="M12 24C18.6274 24 24 18.6274 24 12C24 5.37258 18.6274 0 12 0C5.37258 0 0 5.37258 0 12C0 18.6274 5.37258 24 12 24Z" fill="#4176FA"/>
<path d="M16.3017 9.91271C12.8356 9.91271 12.8312 13.3657 12.8312 13.3834C12.8312 13.3834 12.5937 16.8407 16.3017 16.8407C16.3017 16.8407 19.394 17.0165 19.394 14.4346H17.8061C17.8061 14.4346 17.8587 15.4066 16.3545 15.4066C16.3545 15.4066 14.7666 15.5123 14.7666 13.8363H19.4468C19.4468 13.8363 19.9615 9.91271 16.3017 9.91271ZM14.7489 12.6266C14.7489 12.6266 14.9425 11.2366 16.337 11.2366C17.7357 11.2366 17.7137 12.6266 17.7137 12.6266H14.7489ZM10.7817 11.7382C10.7817 11.7382 12.1584 11.637 12.1584 10.0184C12.1584 8.4042 11.0324 7.6123 9.60281 7.6123H4.90039V16.6513H9.60238C9.60238 16.6513 12.4748 16.7395 12.4748 13.9815C12.475 13.9815 12.5982 11.7382 10.7817 11.7382ZM6.97234 9.21771H9.60259C9.60259 9.21771 10.2405 9.21771 10.2405 10.1589C10.2405 11.1001 9.86656 11.2366 9.43981 11.2366H6.97234V9.21771ZM9.47082 15.0459H6.97234V12.6266H9.60259C9.60259 12.6266 10.5573 12.6178 10.5528 13.8713C10.5528 14.9272 9.84474 15.0372 9.47082 15.0459ZM14.3574 8.14452V9.2575H18.0876V8.14452H14.3574Z" fill="#F1F2F2"/>
</svg>
