<svg width="24" height="24" viewBox="0 0 24 24" fill="none" xmlns="http://www.w3.org/2000/svg">
<path d="M12 24C18.6274 24 24 18.6274 24 12C24 5.37258 18.6274 0 12 0C5.37258 0 0 5.37258 0 12C0 18.6274 5.37258 24 12 24Z" fill="#F99400"/>
<path fill-rule="evenodd" clip-rule="evenodd" d="M10.8597 14.4683C10.4269 14.3677 10.0235 14.2224 9.64 14.0251C9.50267 13.9541 9.36747 13.8781 9.23627 13.7965C8.84934 13.5549 8.72907 13.0565 8.9616 12.6731C9.2008 12.2792 9.69654 12.1512 10.0923 12.3912C10.4816 12.6267 10.8941 12.7979 11.3424 12.8787C12.2245 13.0371 13.0533 12.8912 13.8256 12.4371C13.9832 12.3443 14.1424 12.2715 14.3304 12.2725C14.6949 12.2747 15.0141 12.508 15.12 12.8549C15.2264 13.2045 15.0939 13.5829 14.7843 13.7821C14.3019 14.0925 13.7795 14.3112 13.2232 14.4483C13.1992 14.4539 13.1757 14.4608 13.1421 14.4696C13.1648 14.4941 13.1824 14.5133 13.2011 14.532C13.6955 15.0264 14.1901 15.52 14.684 16.0152C14.9728 16.3048 15.0336 16.7021 14.8419 17.0333C14.5659 17.5104 13.9312 17.5896 13.5336 17.1944C13.0408 16.7043 12.5507 16.212 12.0597 15.7211C12.0421 15.7035 12.0256 15.6845 11.9864 15.6419C11.9701 15.6709 11.9613 15.6992 11.9432 15.7173C11.4512 16.2112 10.9592 16.7043 10.4651 17.196C10.1261 17.5341 9.60854 17.532 9.28054 17.1949C8.98054 16.8867 8.972 16.3971 9.26214 16.0736C9.30134 16.0293 9.344 15.9877 9.3856 15.9459C9.8576 15.4736 10.3293 15.0021 10.8013 14.5296C10.8176 14.5131 10.8344 14.4947 10.8597 14.4683Z" fill="white"/>
<path fill-rule="evenodd" clip-rule="evenodd" d="M12.0013 6.55093C13.5493 6.55093 14.8123 7.8144 14.812 9.3624C14.8117 10.9123 13.5608 12.1739 12.0024 12.1744C10.4352 12.176 9.19067 10.9125 9.18827 9.36773C9.1856 7.8176 10.4397 6.5552 12.0013 6.55093ZM13.1632 9.36507C13.1637 8.72453 12.6456 8.20213 12.0083 8.20053C11.3624 8.19893 10.8363 8.7168 10.8352 9.35467C10.8341 9.9936 11.3523 10.5256 11.9776 10.5261C12.6403 10.5267 13.1627 10.0152 13.1632 9.36507Z" fill="white"/>
</svg>
